<?xml version="1.0" encoding="utf-8"?>
<!-- Generator: Adobe Illustrator 17.1.0, SVG Export Plug-In . SVG Version: 6.00 Build 0)  -->
<!DOCTYPE svg PUBLIC "-//W3C//DTD SVG 1.1//EN" "http://www.w3.org/Graphics/SVG/1.1/DTD/svg11.dtd">
<svg version="1.1" id="Layer_1" xmlns="http://www.w3.org/2000/svg" xmlns:xlink="http://www.w3.org/1999/xlink" x="0px" y="0px"
	 viewBox="0 0 48 48" enable-background="new 0 0 48 48" xml:space="preserve">
<g>
	<path fill="#849899" d="M12.9,18.7c1.1,1.1,1.7,3.9,1.7,4.2c0,0,1.2,0,4.7-3.5s3.8-5,3.8-5c-0.4-0.1-3.2-0.8-4.4-1.9
		C17.2,11,16.6,9,16.8,7.1l-6.5-6.5c-0.8-0.8-2.1-0.8-2.8,0L0.6,7.5c-0.8,0.8-0.8,2.1,0,2.8l6.5,6.5C9.1,16.5,11.3,17.1,12.9,18.7z"
		/>
	<polygon fill="#849899" points="42.9,39.4 31,27.6 29,29.6 40.9,41.4 41.2,43 45.7,46.2 47.7,44.2 44.5,39.7 	"/>
	<path fill="#3D4344" d="M32.9,22.9c1,0.3,2.1,0.5,3.2,0.5l0,0c3.3,0,6.4-1.3,8.6-3.6c1.8-1.8,3.6-6.5,3.2-9.3L44.3,14
		c-0.7,0.7-1.6,1.1-2.6,1.1s-2-0.4-2.7-1.1l-4.9-5c-1.1-1.1-1.4-3.1,0.5-4.9l3.9-3.9c-3,0.2-6.8,0.9-9.6,3.6
		c-3.1,3-4.3,7.7-3.2,11.8l0.3,1L3.7,37.4c-1.9,1.9-1.7,5,0.1,6.9c1.9,1.9,5,2,6.9,0.2L32,22.7L32.9,22.9z M8.9,41.1
		c-0.1,0.9-1,1.5-1.9,1.4s-1.5-0.9-1.4-1.8c0.1-0.9,0.9-1.5,1.8-1.4C8.4,39.3,9,40.2,8.9,41.1z"/>
</g>
</svg>
