<?xml version="1.0" encoding="utf-8"?>
<!-- Generator: Adobe Illustrator 17.1.0, SVG Export Plug-In . SVG Version: 6.00 Build 0)  -->
<!DOCTYPE svg PUBLIC "-//W3C//DTD SVG 1.1//EN" "http://www.w3.org/Graphics/SVG/1.1/DTD/svg11.dtd">
<svg version="1.1" id="Layer_1" xmlns="http://www.w3.org/2000/svg" xmlns:xlink="http://www.w3.org/1999/xlink" x="0px" y="0px"
	 viewBox="0 0 48 48" enable-background="new 0 0 48 48" xml:space="preserve">
<polygon id="line_x5F_graph_4_" fill="#849899" points="327.1,428.3 315.5,389.5 303.9,427.7 291.3,369.2 278.7,428.3 269.8,428.3 
	269.8,435.4 284.7,435.4 291.3,404.2 298,435.4 309.2,435.4 315.5,414.8 321.7,435.4 336,435.4 336,428.3 "/>
<ellipse transform="matrix(0.9997 2.401090e-02 -2.401090e-02 0.9997 0.5191 -0.8292)" fill="#849899" cx="34.8" cy="21.2" rx="6.5" ry="7.4"/>
<ellipse fill="#3D4344" cx="12.9" cy="24.4" rx="6.5" ry="7.9"/>
<path fill="#849899" d="M45.3,30.4c3.4,2.9,2.6,15,2.6,15H29.9c-0.1-2.9-0.1-7.4-2.2-11.8c0,0-2.5-3.2-4.3-3.4
	c0.2-0.4,1.1-0.8,1.5-1c0,0,2.8-1.1,3.5-0.8c0.6,0.3,0.9,0,1.9,1c0.9,1,3.1,2.4,5.8,1.8c2.7-0.6,2.8-2.1,3.6-2.2
	C39.5,29,42.9,27.2,45.3,30.4z"/>
<path fill="#3D4344" d="M20.1,31.9c1.9,0.1,3.3,2.2,3.3,2.2c2.4,2.2,2.9,7.4,3,10.8c0,1.8,0,3.1,0,3.1H0c0,0-0.1-1,0.6-8.5
	c1.9-10,7.9-6.8,7.9-6.8c1.2,1,2.8,2.9,5.8,2.2s3.4-2.6,4.3-2.6C18.5,32.2,18.8,31.8,20.1,31.9z"/>
</svg>
